<svg xmlns="http://www.w3.org/2000/svg" width="32" height="32" viewBox="0 0 32 32">
  <g id="Group_7092" data-name="Group 7092" transform="translate(0 0.512)">
    <rect id="Rectangle_3230" data-name="Rectangle 3230" width="32" height="32" transform="translate(0 -0.512)" fill="#fcbc22" opacity="0"/>
    <g id="social-media_2_" data-name="social-media (2)" transform="translate(-35 -12.512)">
      <path id="Path_13457" data-name="Path 13457" d="M60.825,40a1.214,1.214,0,0,0,1.225-1.2V17.2A1.214,1.214,0,0,0,60.825,16h-19.6A1.214,1.214,0,0,0,40,17.2V38.8A1.214,1.214,0,0,0,41.225,40Zm-19.6-23.2h19.6a.4.4,0,0,1,.408.4v1.2H40.817V17.2A.4.4,0,0,1,41.225,16.8Zm-.408,22V19.2H61.233V38.8a.4.4,0,0,1-.408.4h-19.6A.4.4,0,0,1,40.817,38.8Z" fill="#fcbc22"/>
      <ellipse id="Ellipse_332" data-name="Ellipse 332" cy="0.5" ry="0.5" transform="translate(42.025 17.25)" fill="#fcbc22"/>
      <circle id="Ellipse_333" data-name="Ellipse 333" cx="0.5" cy="0.5" r="0.5" transform="translate(43.025 17.25)" fill="#fcbc22"/>
      <circle id="Ellipse_334" data-name="Ellipse 334" cx="0.5" cy="0.5" r="0.5" transform="translate(44.025 17.25)" fill="#fcbc22"/>
      <path id="Path_13458" data-name="Path 13458" d="M88.408,122.208h16.333a.408.408,0,0,0,.408-.408v-9.392a.408.408,0,0,0-.408-.408H88.408a.408.408,0,0,0-.408.408V121.8a.408.408,0,0,0,.408.408Zm7.35-4.3a1.627,1.627,0,0,0,1.2.173.612.612,0,0,1-1.2-.157Zm.817-.6a.818.818,0,0,1-.817-.817v-.239l.577-.577h1.056v.817A.818.818,0,0,1,96.575,117.308Zm1.2-2.9-.226.451H96.167a.408.408,0,0,0-.289.12l-.12.12v-.239a.818.818,0,0,1,.817-.817h.973a.252.252,0,0,1,.226.365Zm-1.4,4.943a1.431,1.431,0,0,0,1.429-1.429v-.2h1.3a1.637,1.637,0,0,1,1.576,1.2l.277,1.016-1.11.444v-1.03h-.817v2.042H94.32l.593-1.482-.758-.3-.337.843-1.612-.537.271-.993a1.637,1.637,0,0,1,1.576-1.2h.891v.2A1.431,1.431,0,0,0,96.371,119.35Zm3.471,1.91,1.326-.531.181.662H99.841Zm-7.852-.558,1.524.508-.073.182H91.8Zm-3.173-7.885h15.516v8.575h-2.138l-.733-2.686A2.455,2.455,0,0,0,99.1,116.9h-.942a1.631,1.631,0,0,0,.052-.408v-1.129l.3-.591a1.069,1.069,0,0,0-.956-1.547h-.973a1.635,1.635,0,0,0-1.633,1.633v1.633a1.631,1.631,0,0,0,.052.408h-.942a2.455,2.455,0,0,0-2.364,1.805l-.733,2.686H88.817Z" transform="translate(-45.55 -91.271)" fill="#fcbc22"/>
      <path id="Path_13459" data-name="Path 13459" d="M89.753,331.551a.408.408,0,0,0,.577,0l1.38-1.38a1.275,1.275,0,0,0-1.668-1.919,1.275,1.275,0,0,0-1.668,1.919Zm-.478-2.739a.455.455,0,0,1,.324.134l.155.155a.409.409,0,0,0,.578,0l.155-.155a.458.458,0,0,1,.647.647l-1.091,1.091-1.091-1.091a.458.458,0,0,1,.324-.782Z" transform="translate(-45.55 -296.453)" fill="#fcbc22"/>
      <circle id="Ellipse_335" data-name="Ellipse 335" cx="0.5" cy="0.5" r="0.5" transform="translate(47.025 34.161)" fill="#fcbc22"/>
      <circle id="Ellipse_336" data-name="Ellipse 336" cx="0.5" cy="0.5" r="0.5" transform="translate(48.025 34.161)" fill="#fcbc22"/>
      <circle id="Ellipse_337" data-name="Ellipse 337" cx="0.5" cy="0.5" r="0.5" transform="translate(49.025 34.161)" fill="#fcbc22"/>
      <path id="Path_13460" data-name="Path 13460" d="M105.225,416a1.225,1.225,0,1,0,1.225,1.225A1.225,1.225,0,0,0,105.225,416Zm0,1.633a.408.408,0,1,1,.408-.408A.408.408,0,0,1,105.225,417.633Z" transform="translate(-60.733 -380.083)" fill="#fcbc22"/>
      <rect id="Rectangle_5167" data-name="Rectangle 5167" width="1" height="1" transform="translate(47.025 37.138)" fill="#fcbc22"/>
      <rect id="Rectangle_5168" data-name="Rectangle 5168" width="4" height="1" transform="translate(49.025 37.138)" fill="#fcbc22"/>
    </g>
  </g>
</svg>
