<svg xmlns="http://www.w3.org/2000/svg" width="24" height="24" viewBox="0 0 24 24">
  <g id="Group_7172" data-name="Group 7172" transform="translate(-366 -7167)">
    <g id="Rectangle_5066" data-name="Rectangle 5066" transform="translate(366 7167)" fill="#707070" stroke="#707070" stroke-width="1" opacity="0">
      <rect width="24" height="24" stroke="none"/>
      <rect x="0.5" y="0.5" width="23" height="23" fill="none"/>
    </g>
    <g id="grocery" transform="translate(350 7148.167)">
      <path id="Path_13097" data-name="Path 13097" d="M153.7,26.956h-.393V22.589a3.911,3.911,0,0,0-2.372-3.6,1.977,1.977,0,0,0-1.55,0,3.911,3.911,0,0,0-2.372,3.6v3.718a4.305,4.305,0,0,1-.769-2.106h0a.393.393,0,0,0,.376-.393V21.447a.393.393,0,0,0-.393-.393h-3.148a.393.393,0,0,0-.393.393v.14c-.022-.025-.044-.049-.068-.073a1.573,1.573,0,0,0-2.489.351,1.574,1.574,0,0,0-2.911.408,1.573,1.573,0,0,0-.686,2.714,1.572,1.572,0,0,0,.253,2.543V29.71h.787V27.742h11.8v13.77h-3.148V42.3H153.7a.393.393,0,0,0,.393-.393V27.349a.393.393,0,0,0-.393-.393Zm-5.9-2.361h1.18a.393.393,0,1,1,0,.787H147.8Zm.215-3.148h.965a.393.393,0,1,1,0,.787h-1.161a3.148,3.148,0,0,1,.2-.787Zm-4.543.393h2.361v1.574h-2.361Zm-5.9,5.115a.787.787,0,1,1,0-1.574.393.393,0,0,0,0-.787.787.787,0,1,1,0-1.574.393.393,0,0,0,.393-.393.787.787,0,0,1,1.555-.171,1.572,1.572,0,0,0-.234,2.531,1.571,1.571,0,0,0-.323,1.967Zm2.754,0a.787.787,0,1,1,0-1.574.393.393,0,0,0,0-.787.787.787,0,1,1,0-1.574.393.393,0,0,0,.393-.393.787.787,0,1,1,1.574,0,.393.393,0,0,0,.393.393v.787a.393.393,0,0,0,.376.393h0a4.314,4.314,0,0,1-1.163,2.588V22.628h-.787v4.328Zm2.466,0a5.085,5.085,0,0,0,1.06-2.754h1.6a5.084,5.084,0,0,0,1.06,2.754Zm5.009,0v-.787h1.18a1.18,1.18,0,1,0,0-2.361H147.8v-.787h1.18a1.18,1.18,0,0,0,0-2.361h-.515a3.121,3.121,0,0,1,1.231-.946,1.182,1.182,0,0,1,.929,0,3.124,3.124,0,0,1,1.9,2.875v4.367Zm5.508,14.557h-3.148V27.742h3.148Z" transform="translate(-114.097 0)" fill="#707070"/>
      <path id="Path_13098" data-name="Path 13098" d="M23.869,371.148a1.182,1.182,0,0,0-.9-1.147,3.3,3.3,0,0,0-6.066,0,1.18,1.18,0,0,0,0,2.294,3.3,3.3,0,0,0,6.066,0A1.182,1.182,0,0,0,23.869,371.148Zm-1.18.393a.393.393,0,0,0-.365.247l-.056.141a2.512,2.512,0,0,1-4.665,0l-.056-.141a.393.393,0,0,0-.365-.247.393.393,0,0,1,0-.787.393.393,0,0,0,.365-.247l.056-.141a2.512,2.512,0,0,1,4.665,0l.056.141a.393.393,0,0,0,.365.247.393.393,0,0,1,0,.787Z" transform="translate(0 -331.995)" fill="#707070"/>
      <rect id="Rectangle_5062" data-name="Rectangle 5062" width="0.787" height="0.787" transform="translate(18.361 37.972)" fill="#707070"/>
      <rect id="Rectangle_5063" data-name="Rectangle 5063" width="0.787" height="0.787" transform="translate(19.148 39.546)" fill="#707070"/>
      <rect id="Rectangle_5064" data-name="Rectangle 5064" width="0.787" height="0.787" transform="translate(20.722 38.759)" fill="#707070"/>
      <path id="Path_13099" data-name="Path 13099" d="M124.229,260.221l.843-1.685-.7-.352-.542,1.085-.286-.286v-.833a1.976,1.976,0,0,0-1.689-1.947l-1.4-.2a.393.393,0,0,0-.445.445l.2,1.4a1.976,1.976,0,0,0,1.947,1.689h.833l.453.453a3.938,3.938,0,0,0-3.306.942l.525.586a3.143,3.143,0,0,1,2.1-.8,3.071,3.071,0,0,1,.338.018l-.446.892a.381.381,0,0,0-.109-.082l-.787-.393-.352.7.681.34a1.276,1.276,0,0,0,1.443.525l.63.315.352-.7-.787-.393a.4.4,0,0,0-.345,0l.506-1.011a3.148,3.148,0,1,1-2.172,5.909l-.263.742a3.935,3.935,0,0,0,2.788-7.357Zm-1.476-2.024-.767-.767-.556.556.767.767h-.046a1.186,1.186,0,0,1-1.169-1.014l-.126-.883.883.126a1.186,1.186,0,0,1,1.014,1.168Z" transform="translate(-98.884 -225.502)" fill="#707070"/>
      <path id="Path_13100" data-name="Path 13100" d="M205.257,218.754h-.393v-.393h.393a.393.393,0,0,0,.393-.393v-1.574a.393.393,0,0,0-.393-.393h-3.934a.393.393,0,0,0-.393.393v1.574a.393.393,0,0,0,.393.393h.393v.393h-.393a1.576,1.576,0,0,0-1.173.525l.586.524a.788.788,0,0,1,.587-.262h.787a.393.393,0,0,0,.393-.393v-.787h1.574v.393h-.787v.787h1.967a.788.788,0,0,1,.787.787v.787h-4.328v.787h4.328v4.721h-2.361v.787h2.361v.787a.788.788,0,0,1-.787.787H202.11v.787h3.148a1.575,1.575,0,0,0,1.574-1.574v-7.869A1.576,1.576,0,0,0,205.257,218.754Zm-3.541-1.18v-.787h3.148v.787Z" transform="translate(-175.093 -187.471)" fill="#707070"/>
    </g>
  </g>
</svg>
