<svg xmlns="http://www.w3.org/2000/svg" width="24" height="24" viewBox="0 0 24 24">
  <g id="Group_7582" data-name="Group 7582" transform="translate(-395 -7115)">
    <g id="Rectangle_5067" data-name="Rectangle 5067" transform="translate(395 7115)" fill="#707070" stroke="#707070" stroke-width="1" opacity="0">
      <rect width="24" height="24" stroke="none"/>
      <rect x="0.5" y="0.5" width="23" height="23" fill="none"/>
    </g>
    <g id="Page-1" transform="translate(395 7115)">
      <g id="_029---Preparing-Vegetables" data-name="029---Preparing-Vegetables" transform="translate(0 0)">
        <path id="Shape" d="M23.2,40v-.8a.8.8,0,0,0-.8-.8H17.6a.8.8,0,0,0-.8.8V40H10.825a5.972,5.972,0,0,0,.774-3.2c0-2.28-.86-4-2-4a7.66,7.66,0,0,1-2.027-.442A6.008,6.008,0,0,0,6,32c-1,0-1.644,1.344-1.888,2.935-.135-.042-.268-.086-.415-.123a4.133,4.133,0,0,0-3.12.455.4.4,0,0,0,.442.666A3.381,3.381,0,0,1,3.5,35.588c.186.046.358.1.52.156,0,.062-.008.123-.011.184a6.075,6.075,0,0,0-3.5,1.789.4.4,0,1,0,.566.566,5.311,5.311,0,0,1,2.924-1.544c0,.1.009.194.015.29A6.99,6.99,0,0,0,1.717,40H.8a.8.8,0,0,0-.8.8v1.6a.8.8,0,0,0,.8.8H23.2a.8.8,0,0,0,.8-.8V40.8A.8.8,0,0,0,23.2,40Zm-5.6-.8h4.8V40H17.6ZM6,32.8a5.853,5.853,0,0,1,1.336.32A8.178,8.178,0,0,0,9.6,33.6c.49,0,1.2,1.247,1.2,3.2S10.089,40,9.6,40H6c-.408,0-.968-.977-1.144-2.575a6.582,6.582,0,0,1,1.285-.65.4.4,0,0,0,.143-.656,5.092,5.092,0,0,0-1.41-.9C5.067,33.714,5.605,32.8,6,32.8ZM4.128,37.975A5.635,5.635,0,0,0,4.817,40H2.591A6.325,6.325,0,0,1,4.128,37.975ZM23.2,42.4H.8V40.8H23.2Z" transform="translate(0 -19.201)" fill="#fff"/>
        <path id="Shape-2" data-name="Shape" d="M15.388,4.994,10.863.469A1.6,1.6,0,0,0,8.6.469L7.469,1.6a1.6,1.6,0,0,0,0,2.263L8.6,4.994l2.828,2.828a1.6,1.6,0,0,0,2.263,0l.283-.283.566.566L13.125,9.52a1.2,1.2,0,0,0,0,1.7l5.7,5.7a5.2,5.2,0,0,0,7.353,0,.4.4,0,0,0,0-.566L16.52,6.691l-.927-.927a.777.777,0,0,0-.2-.77ZM11.994,7.257l-.566-.566.566-.566a.4.4,0,0,0-.566-.565l-.566.566L9.449,4.712l.566-.566a.4.4,0,1,0-.566-.566l-.566.566L8.035,3.3a.8.8,0,0,1,0-1.132L9.166,1.035a.8.8,0,0,1,1.132,0L14.823,5.56,13.691,6.692l-.566.565a.819.819,0,0,1-1.132,0Zm2.546-.283.566-.566.566.566-.566.566Zm.849,1.414.848-.849,7.94,7.94a2.8,2.8,0,0,1-3.654-.26L14.54,9.237l.848-.848ZM22.5,17.64a4.371,4.371,0,0,1-3.111-1.289l-5.7-5.7a.4.4,0,0,1,0-.566l.283-.283,5.983,5.983a3.6,3.6,0,0,0,4.791.266l.571.57A4.369,4.369,0,0,1,22.5,17.64Z" transform="translate(-4.2 0)" fill="#fff"/>
        <path id="Shape-3" data-name="Shape" d="M20.219,42.762a.4.4,0,0,0,.537-.179c.864-1.728.056-4.2.021-4.305a.4.4,0,0,0-.76.253c.007.022.739,2.26.021,3.695a.4.4,0,0,0,.181.537Z" transform="translate(-11.998 -22.803)" fill="#fff"/>
      </g>
    </g>
  </g>
</svg>
