<svg xmlns="http://www.w3.org/2000/svg" xmlns:xlink="http://www.w3.org/1999/xlink" width="523.214" height="522.793" viewBox="0 0 523.214 522.793"><defs><style>.a{fill:#fff4db;}.b{opacity:0.3;}.c,.g{fill:#fcbc22;}.d{fill:#fede91;}.e{fill:#f2ae0a;}.f,.h,.j{fill:#fff;}.f,.g{opacity:0.4;}.h{opacity:0.94;}.i{fill:url(#a);}.k{fill:url(#c);}.l{fill:url(#d);}.m{fill:url(#e);}.n{fill:url(#f);}.o{fill:url(#h);}.p{fill:#09005d;}.q{fill:url(#i);}.r{fill:url(#j);}.s{fill:url(#k);}.t{fill:url(#l);}.u{fill:url(#m);}</style><linearGradient id="a" x1="0.958" y1="-0.846" x2="-1.041" y2="5.105" gradientUnits="objectBoundingBox"><stop offset="0" stop-color="#886000"/><stop offset="1" stop-color="#fe7062"/></linearGradient><linearGradient id="c" x1="-0.405" y1="1.506" x2="1.414" y2="-0.48" gradientUnits="objectBoundingBox"><stop offset="0" stop-color="#e1473d"/><stop offset="1"/></linearGradient><linearGradient id="d" x1="0.563" y1="0.165" x2="-0.22" y2="2.706" gradientUnits="objectBoundingBox"><stop offset="0" stop-color="#febbba"/><stop offset="1" stop-color="#ff928e"/></linearGradient><linearGradient id="e" x1="62.376" y1="0.5" x2="61.376" y2="0.5" gradientUnits="objectBoundingBox"><stop offset="0" stop-color="#4f52ff"/><stop offset="1" stop-color="#fcbc22"/></linearGradient><linearGradient id="f" x1="71.887" y1="0.663" x2="71.821" y2="1.26" xlink:href="#d"/><linearGradient id="h" x1="32.473" y1="0.678" x2="32.444" y2="1.278" xlink:href="#d"/><linearGradient id="i" x1="0.555" y1="-0.55" x2="0.482" y2="0.971" gradientUnits="objectBoundingBox"><stop offset="0" stop-color="#fcbc22"/><stop offset="1" stop-color="#ffe9b5"/></linearGradient><linearGradient id="j" x1="36.242" y1="1.387" x2="36.433" y2="-0.025" xlink:href="#d"/><linearGradient id="k" x1="60.467" y1="3.765" x2="59.074" y2="1.271" gradientUnits="objectBoundingBox"><stop offset="0" stop-color="#febbba"/><stop offset="1" stop-color="#ffc7c5"/></linearGradient><linearGradient id="l" x1="-3.229" y1="4.563" x2="2.004" y2="-1.336" xlink:href="#c"/><linearGradient id="m" x1="15.292" y1="0.857" x2="15.868" y2="0.03" xlink:href="#d"/></defs><g transform="translate(-470.061 -468.243)"><path class="a" d="M931.075,917.5c-10.708,11.249-20.839,18.5-28.844,24.235-94.094,67.371-205.433,47.733-229.1,42.937C638.194,977.589,570.651,963.9,521.819,906.6c-73.879-86.7-62.375-223.285-5.069-313.449,10.482-16.493,65.851-108.03,178.389-122.709,68.107-8.884,147.5,9.034,204.989,57.1C1020.81,628.431,1012.219,832.255,931.075,917.5Z"/><g transform="translate(518.51 473.573)"><g transform="translate(0 13.817)"><g class="b"><path class="c" d="M876.608,598.119a2,2,0,0,1-2.824-.132c-1.444-1.586-2.979-3.132-4.561-4.6a2,2,0,0,1-.135-2.8l.026-.029a2,2,0,0,1,2.825-.109c1.665,1.541,3.281,3.169,4.8,4.838a2,2,0,0,1,.017,2.673A1.962,1.962,0,0,1,876.608,598.119Zm-15.576-11.326c-1.766-1.234-3.6-2.4-5.458-3.48a2,2,0,1,1,2-3.459c1.953,1.131,3.885,2.363,5.744,3.661a2,2,0,0,1-2.29,3.277Zm-14.9-8.1c-1.991-.808-4.042-1.539-6.1-2.173a2,2,0,1,1,1.179-3.82c2.163.668,4.323,1.438,6.419,2.289a2,2,0,1,1-1.5,3.7Zm-16.338-4.566c-2.124-.343-4.288-.6-6.431-.757a2,2,0,1,1,.3-3.986c2.257.168,4.534.436,6.77.8a2,2,0,0,1-.636,3.947Zm-16.948-.813c-2.142.137-4.309.368-6.439.687a2,2,0,1,1-.591-3.953c2.241-.336,4.521-.578,6.775-.722a2,2,0,1,1,.255,3.989Zm-16.705,2.958c-2.062.608-4.123,1.313-6.126,2.094a2,2,0,0,1-1.453-3.724c2.108-.822,4.278-1.564,6.448-2.2a2,2,0,0,1,1.131,3.834Zm-53.424,51.52a2,2,0,0,1-1.316-2.5c.671-2.159,1.445-4.319,2.3-6.418a2,2,0,0,1,3.7,1.51c-.813,1.993-1.548,4.044-2.185,6.094a2,2,0,0,1-2.5,1.316Zm37.8-44.937c-1.874,1.051-3.725,2.2-5.5,3.4a2,2,0,1,1-2.247-3.306c1.871-1.272,3.82-2.478,5.794-3.584a2,2,0,1,1,1.955,3.486Zm-31.2,28.815a2,2,0,0,1-.722-2.733c1.137-1.954,2.374-3.885,3.674-5.74a2,2,0,1,1,3.273,2.3c-1.236,1.763-2.412,3.6-3.492,5.455a2,2,0,0,1-2.733.722Zm17.445-18.907c-1.59,1.443-3.139,2.973-4.6,4.55a2,2,0,0,1-2.957-2.689l.029-.031c1.541-1.66,3.172-3.272,4.845-4.791a2,2,0,0,1,2.838,2.808C766.863,592.66,766.812,592.711,766.759,592.76Z" transform="translate(-738.379 -569.319)"/><path class="c" d="M729.326,919.616a1.99,1.99,0,0,0,.491-1.088c.123-1.023.27-2.06.435-3.084a2,2,0,1,0-3.945-.639c-.175,1.077-.329,2.168-.459,3.244a2,2,0,0,0,3.478,1.567Z" transform="translate(-725.833 -848)"/></g><g class="b" transform="translate(14.94 83.467)"><path class="c" d="M810.169,1231.432a2,2,0,0,0,.055-2.591c-.651-.8-1.3-1.624-1.919-2.453a2,2,0,0,0-3.2,2.4c.654.873,1.335,1.743,2.02,2.583a2,2,0,0,0,2.812.285A2.023,2.023,0,0,0,810.169,1231.432Z" transform="translate(-804.706 -1184.742)"/><path class="c" d="M965.379,1120.7a2,2,0,0,1-2.851-2.8c1.473-1.5,2.9-3.084,4.273-4.729a2,2,0,0,1,3.073,2.557q-.889,1.069-1.807,2.1C967.194,1118.807,966.29,1119.774,965.379,1120.7Zm8.123-13.163a2,2,0,0,1-.636-2.753c1.122-1.8,2.181-3.662,3.146-5.541a2,2,0,1,1,3.556,1.825c-1.016,1.979-2.13,3.942-3.312,5.833a2.036,2.036,0,0,1-.2.273A2,2,0,0,1,973.5,1107.538Zm-16.271,20.391c-1.761,1.358-3.6,2.66-5.478,3.868a2,2,0,1,1-2.166-3.36c1.781-1.147,3.53-2.383,5.2-3.673a2,2,0,0,1,2.715,2.91A2.026,2.026,0,0,1,957.231,1127.929Zm24.09-35.645a2,2,0,0,1-1.226-2.547c.7-2,1.322-4.048,1.85-6.095a2,2,0,0,1,3.87,1c-.556,2.156-1.211,4.316-1.948,6.419a2,2,0,0,1-2.547,1.226Zm-39.1,44.766c-2.015.937-4.1,1.8-6.193,2.568a2,2,0,1,1-1.374-3.753c1.989-.729,3.968-1.549,5.882-2.439a2,2,0,1,1,1.685,3.625Zm-16.646,5.608c-2.176.475-4.4.864-6.6,1.156a2,2,0,1,1-.524-3.963c2.1-.277,4.207-.647,6.275-1.1a2,2,0,1,1,.852,3.9Zm-17.474,1.847c-2.229-.01-4.483-.115-6.7-.31a2,2,0,0,1,.351-3.982c2.1.186,4.246.285,6.365.295a2,2,0,0,1-.018,4Zm-17.46-2.009c-2.173-.5-4.35-1.093-6.47-1.771a2,2,0,1,1,1.218-3.807c2.013.644,4.08,1.21,6.144,1.682a2,2,0,1,1-.892,3.9Zm-16.6-5.8c-2.005-.962-4-2.022-5.917-3.151a2,2,0,0,1,2.026-3.446c1.825,1.073,3.716,2.08,5.62,2.994a2,2,0,1,1-1.729,3.6Zm-14.907-9.293c-1.288-1.013-2.56-2.079-3.782-3.167q-.664-.591-1.311-1.193a1.976,1.976,0,0,1-.1-2.824,2,2,0,0,1,2.825-.1q.615.572,1.246,1.134c1.162,1.034,2.37,2.047,3.6,3.01a2,2,0,0,1,.335,2.806c-.026.033-.052.064-.079.1A2,2,0,0,1,859.134,1127.4Z" transform="translate(-844.172 -1068.469)"/><path class="c" d="M1545.463,1016.466a1.992,1.992,0,0,0,.492-1.1c.124-1.075.228-2.173.308-3.263a2,2,0,1,0-3.986-.295c-.077,1.036-.175,2.079-.293,3.1a2,2,0,0,0,3.479,1.557Z" transform="translate(-1402.316 -1009.958)"/></g><g transform="translate(18.565 19.089)"><path class="d" d="M942.1,714.109a.934.934,0,0,0-.762-.772l-11.2-1.961a49.527,49.527,0,0,0-8.4-13.67l3.3-10.873a.934.934,0,0,0-.346-1.028l-11.046-8a.933.933,0,0,0-1.084-.008l-9.3,6.528a49.525,49.525,0,0,0-15.61-3.715L882.3,670.586a.934.934,0,0,0-.971-.482l-13.466,2.156a.934.934,0,0,0-.772.761l-1.961,11.2a49.516,49.516,0,0,0-13.67,8.4l-10.872-3.3a.934.934,0,0,0-1.028.346l-8,11.046a.934.934,0,0,0-.008,1.084l6.529,9.3a49.521,49.521,0,0,0-3.715,15.61l-10.027,5.359a.934.934,0,0,0-.482.972l2.156,13.466a.934.934,0,0,0,.761.772l11.2,1.961a49.514,49.514,0,0,0,8.4,13.67l-3.3,10.873a.934.934,0,0,0,.346,1.028l11.046,8a.934.934,0,0,0,1.084.008l9.3-6.528A49.532,49.532,0,0,0,880.459,780l5.359,10.027a.934.934,0,0,0,.971.482l13.466-2.156a.934.934,0,0,0,.772-.761l1.961-11.2a49.526,49.526,0,0,0,13.67-8.4l10.872,3.3a.935.935,0,0,0,1.028-.346l8-11.046a.934.934,0,0,0,.008-1.084l-6.528-9.3a49.523,49.523,0,0,0,3.715-15.61l10.027-5.359a.934.934,0,0,0,.482-.972Z" transform="translate(-823.842 -670.093)"/><g transform="translate(46.505 46.512)"><path class="c" d="M1091.857,939.854a13.7,13.7,0,1,1,1.446-1.4A13.723,13.723,0,0,1,1091.857,939.854Zm-19.267-11.442a10.51,10.51,0,1,0,3.724-7.131,10.672,10.672,0,0,0-1.119,1.085A10.433,10.433,0,0,0,1072.59,928.412Z" transform="translate(-1069.35 -915.64)"/></g><path class="c" d="M1021.063,866.379a34.319,34.319,0,0,0,2.17-2.7h0q.322-.445.63-.9a33.92,33.92,0,0,0,2.659-4.7l.031-.066c.029-.063.058-.126.086-.19.056-.123.111-.247.166-.37a.8.8,0,1,0-1.463-.644,32.144,32.144,0,0,1-31.358,19.14,31.911,31.911,0,0,1-16.881-6.033,32.566,32.566,0,0,1-2.576-2.07,32.109,32.109,0,0,1,40.233-49.942,32.114,32.114,0,0,1,10.686,13.354.8.8,0,1,0,1.47-.629,33.709,33.709,0,1,0-53.455,38.41,34.515,34.515,0,0,0,2.7,2.173,33.713,33.713,0,0,0,44.9-4.835Z" transform="translate(-936.006 -783.676)"/></g></g><g transform="translate(132.349 0)"><g class="b"><path class="c" d="M1886.917,616.833a1.234,1.234,0,0,0,.125-1.474c-.554-.889-1.144-1.774-1.751-2.629a1.234,1.234,0,0,0-2.013,1.43c.579.815,1.14,1.658,1.67,2.506a1.235,1.235,0,0,0,1.7.394A1.248,1.248,0,0,0,1886.917,616.833Z" transform="translate(-1796.195 -590.269)"/><path class="c" d="M1509.418,515.47a1.234,1.234,0,0,1-1.744-.077,51.3,51.3,0,0,0-3.688-3.637q-.407-.362-.824-.717a1.235,1.235,0,0,1-.137-1.74,1.278,1.278,0,0,1,1.741-.137q.436.373.861.751a53.619,53.619,0,0,1,3.867,3.813,1.235,1.235,0,0,1,.012,1.654C1509.479,515.41,1509.449,515.44,1509.418,515.47Zm-11.263-8.2a51.156,51.156,0,0,0-5.428-3.132,1.234,1.234,0,1,1,1.1-2.21,53.515,53.515,0,0,1,5.691,3.284,1.235,1.235,0,0,1,.348,1.711,1.281,1.281,0,0,1-.109.14A1.234,1.234,0,0,1,1498.155,507.266Zm-11.2-5.57a50.633,50.633,0,0,0-6.033-1.7,1.235,1.235,0,0,1,.522-2.413,53.256,53.256,0,0,1,6.328,1.786,1.235,1.235,0,0,1-.817,2.33Zm-12.231-2.647a50.929,50.929,0,0,0-6.265-.174,1.235,1.235,0,0,1-.085-2.468,53.565,53.565,0,0,1,6.57.183,1.234,1.234,0,1,1-.221,2.459Zm-12.507.42a51.43,51.43,0,0,0-6.12,1.352,1.234,1.234,0,1,1-.678-2.374,54,54,0,0,1,6.414-1.418,1.235,1.235,0,0,1,.385,2.44Zm-12.026,3.443a50.676,50.676,0,0,0-5.6,2.8,1.235,1.235,0,0,1-1.24-2.136,53.141,53.141,0,0,1,5.874-2.939,1.235,1.235,0,1,1,.966,2.272Zm-10.814,6.277a50.729,50.729,0,0,0-4.745,4.095,1.235,1.235,0,0,1-1.725-1.768,53.516,53.516,0,0,1,4.976-4.293,1.235,1.235,0,0,1,1.494,1.965Zm-14.257,14.275a1.234,1.234,0,0,1-.4-1.7,53.718,53.718,0,0,1,3.249-4.694c.176-.23.355-.456.534-.681a1.235,1.235,0,0,1,1.927,1.545c-.169.21-.337.424-.5.643a51.217,51.217,0,0,0-3.1,4.482,1.232,1.232,0,0,1-1.7.4Z" transform="translate(-1424.528 -496.377)"/></g><g class="b" transform="translate(30.849 55.959)"><path class="c" d="M1641.457,865.053a53.717,53.717,0,0,1-4.64,4.5,1.235,1.235,0,1,1-1.608-1.874,51.067,51.067,0,0,0,4.426-4.29,1.235,1.235,0,0,1,1.833,1.654Zm2.346-4.74a1.234,1.234,0,0,1-.286-1.721,51.588,51.588,0,0,0,3.279-5.224,1.235,1.235,0,0,1,2.167,1.185,53.925,53.925,0,0,1-3.437,5.474,1.269,1.269,0,0,1-.083.1A1.234,1.234,0,0,1,1643.8,860.313Zm-12.142,13.141a53.536,53.536,0,0,1-5.591,3.244,1.235,1.235,0,0,1-1.108-2.207,51.223,51.223,0,0,0,5.335-3.093,1.234,1.234,0,1,1,1.365,2.056Zm18.449-24.064a1.235,1.235,0,0,1-.692-1.6,50.683,50.683,0,0,0,1.921-5.86,1.234,1.234,0,1,1,2.388.624,52.907,52.907,0,0,1-2.014,6.146,1.234,1.234,0,0,1-1.6.692Zm-29.981,29.846a53.694,53.694,0,0,1-6.207,1.8,1.235,1.235,0,1,1-.544-2.409,50.8,50.8,0,0,0,5.919-1.72,1.235,1.235,0,0,1,.831,2.326Zm-12.585,2.847a53.927,53.927,0,0,1-6.459.267,1.234,1.234,0,0,1,.048-2.468,51.588,51.588,0,0,0,6.162-.255,1.235,1.235,0,0,1,.25,2.456Zm-12.905-.248a53.355,53.355,0,0,1-6.337-1.291,1.235,1.235,0,0,1,.639-2.385,50.5,50.5,0,0,0,6.042,1.231,1.234,1.234,0,0,1,1.05,1.4,1.22,1.22,0,0,1-.3.648A1.234,1.234,0,0,1,1594.638,881.834Z" transform="translate(-1587.386 -831.683)"/><path class="c" d="M1933.435,796.919a1.231,1.231,0,0,0,.3-.657c.14-1.047.249-2.1.326-3.139a1.235,1.235,0,1,0-2.463-.182c-.073.988-.177,2-.311,2.995a1.234,1.234,0,0,0,2.146.983Z" transform="translate(-1866.137 -791.797)"/></g><g transform="translate(4.979 12.777)"><path class="d" d="M1529.946,593.283a.625.625,0,0,0-.51-.517l-7.494-1.312a33.134,33.134,0,0,0-5.622-9.147l2.208-7.275a.625.625,0,0,0-.232-.688l-7.391-5.351a.625.625,0,0,0-.726-.005l-6.223,4.368a33.141,33.141,0,0,0-10.445-2.486l-3.586-6.71a.625.625,0,0,0-.65-.323l-9.011,1.442a.625.625,0,0,0-.517.509l-1.312,7.494a33.135,33.135,0,0,0-9.148,5.622l-7.275-2.208a.625.625,0,0,0-.688.232l-5.352,7.392a.625.625,0,0,0-.005.725l4.369,6.223a33.132,33.132,0,0,0-2.486,10.445l-6.71,3.586a.625.625,0,0,0-.323.65l1.442,9.011a.625.625,0,0,0,.509.517l7.494,1.312a33.135,33.135,0,0,0,5.622,9.147l-2.208,7.275a.625.625,0,0,0,.232.688l7.392,5.352a.625.625,0,0,0,.725.005l6.223-4.369a33.133,33.133,0,0,0,10.445,2.486l3.586,6.71a.625.625,0,0,0,.65.323l9.011-1.442a.626.626,0,0,0,.517-.51l1.312-7.494a33.137,33.137,0,0,0,9.147-5.622l7.275,2.208a.625.625,0,0,0,.688-.232l5.351-7.392a.624.624,0,0,0,.005-.725l-4.368-6.223a33.14,33.14,0,0,0,2.486-10.445l6.71-3.586a.625.625,0,0,0,.322-.65Z" transform="translate(-1450.811 -563.829)"/><g transform="translate(30.96 30.959)"><path class="c" d="M1629.58,743.763a9.307,9.307,0,1,1,.994-.963A9.53,9.53,0,0,1,1629.58,743.763Zm-11.261-2.752a6.868,6.868,0,0,0,9.676.859h0a6.869,6.869,0,0,0-8.817-10.535,6.986,6.986,0,0,0-.724.7A6.88,6.88,0,0,0,1618.319,741.011Z" transform="translate(-1614.253 -727.269)"/></g><path class="c" d="M1580.326,692.568q.779-.875,1.481-1.843a23.373,23.373,0,0,0,2.377-4.1l.086-.195a1.234,1.234,0,1,0-2.259-.994,20.858,20.858,0,0,1-2.2,3.838h0c-.047.066-.1.131-.144.2a20.583,20.583,0,0,1-7.876,6.449,20.89,20.89,0,0,1-5.345,1.66l-.046.008-.14.023a20.65,20.65,0,0,1-15.475-3.688,21.009,21.009,0,0,1-1.667-1.34,20.787,20.787,0,1,1,32.963-23.688,1.234,1.234,0,0,0,1.62.65,1.236,1.236,0,0,0,.65-1.621,23.2,23.2,0,0,0-5.9-8.192,23.433,23.433,0,0,0-1.841-1.48,23.256,23.256,0,0,0-29.14,36.172,23.724,23.724,0,0,0,1.864,1.5A23.288,23.288,0,0,0,1580.326,692.568Z" transform="translate(-1522.873 -636.781)"/></g></g></g><g transform="translate(475.745 591.65)"><path class="e" d="M582.394,1407.989a8.5,8.5,0,0,0,8.482,8.474h458.661a8.5,8.5,0,0,0,8.482-8.474l3.817-263.58c0-4.66-5.491-13.759-15.554-13.075l-448.254-11.6A21.374,21.374,0,0,0,576.1,1141.6Z" transform="translate(-561.689 -1119.728)"/><path class="a" d="M626.219,1442.87a8.048,8.048,0,0,0,8.024,8.024h439.684a8.048,8.048,0,0,0,8.024-8.024l3.6-239.28c-.424-14.4-13.048-19.575-20.7-19.269l-429.611-11.526a15.022,15.022,0,0,0-15.411,15.372Z" transform="translate(-597.14 -1162.738)"/><g transform="translate(325.236 22.463)"><path class="f" d="M3029.356,1753.044h-.012a1.06,1.06,0,0,1-1.164-.921l.285-14.974a1.073,1.073,0,0,1,1.175-.894h.018a1.058,1.058,0,0,1,1.158.921l-.285,14.974A1.073,1.073,0,0,1,3029.356,1753.044Z" transform="translate(-2874.533 -1641.933)"/><path class="f" d="M2372.571,1312.73h-.018a1.058,1.058,0,0,1-1.158-.921l1.091-57.35a9.6,9.6,0,0,0-3.983-8.066c-4.9-3.62-12.669-3.435-13-3.423l-137.313-2.841a1.049,1.049,0,0,1-1.144-.931,1.038,1.038,0,0,1,1.207-.882l137.231,2.841c.854-.039,9.13-.149,14.641,3.926a11.193,11.193,0,0,1,4.708,9.385l-1.092,57.368A1.073,1.073,0,0,1,2372.571,1312.73Z" transform="translate(-2217.049 -1238.313)"/></g><rect class="c" width="517.53" height="23.159" rx="5.654" transform="translate(517.53 318.615) rotate(180)"/><g transform="translate(39.484 24.048)"><rect class="g" width="184.587" height="81.956" rx="17.641" transform="translate(4.749 169.309)"/><path class="g" d="M1134.439,1284.814H716.767a8.258,8.258,0,0,1-8.258-8.258v-18.647a11.229,11.229,0,0,1,11.407-11.227l414.522,6.6a8.258,8.258,0,0,1,8.258,8.258v15.02A8.258,8.258,0,0,1,1134.439,1284.814Z" transform="translate(-708.509 -1246.68)"/><rect class="g" width="184.587" height="113.066" rx="17.641" transform="translate(1.477 49.035)"/><rect class="g" width="233.904" height="200.906" rx="18.163" transform="translate(195.959 50.359)"/></g></g><g transform="translate(515.25 487.766)"><g transform="translate(218.479 75.557)"><rect class="a" width="196.462" height="253.44" rx="12.05"/><rect class="c" width="184.241" height="244.8" rx="40.047" transform="translate(6.793 4.374)"/><circle class="h" cx="46.282" cy="46.282" r="46.282" transform="translate(51.295 26.97)"/><path class="i" d="M2330.5,1207.245c0,7.837-6.353,16.3-14.19,16.3s-14.19-8.46-14.19-16.3,6.353-13.4,14.19-13.4S2330.5,1199.408,2330.5,1207.245Z" transform="translate(-2218.757 -1151.481)"/><path class="i" d="M2242.037,1400.14h34.639a8.384,8.384,0,0,0,7.986-5.83l1.864-5.826a8.376,8.376,0,0,0-5.06-10.422c-14.1-5.154-28.674-4.493-43.606.476a8.349,8.349,0,0,0-5.35,10.121l1.435,5.291A8.384,8.384,0,0,0,2242.037,1400.14Z" transform="translate(-2162.09 -1297.907)"/><g transform="translate(30.164 200.002)"><rect class="h" width="134.636" height="21.991" rx="6.667"/><circle cx="6.956" cy="6.956" r="6.956" transform="translate(7.629 4.039)"/><circle cx="6.956" cy="6.956" r="6.956" transform="translate(25.132 4.039)"/><circle cx="6.956" cy="6.956" r="6.956" transform="translate(42.211 4.039)"/><circle cx="6.956" cy="6.956" r="6.956" transform="translate(59.714 4.039)"/><circle cx="6.956" cy="6.956" r="6.956" transform="translate(77.716 4.039)"/><circle cx="6.956" cy="6.956" r="6.956" transform="translate(95.219 4.039)"/><circle cx="6.956" cy="6.956" r="6.956" transform="translate(112.893 4.039)"/></g><g transform="translate(72.152 126.527)"><path class="j" d="M2292.921,1653.809l-1.947.8a1.892,1.892,0,0,1-2.47-1.031l-2.737-6.655a4.664,4.664,0,0,0-6.087-2.539l-12.064,4.962a4.663,4.663,0,0,0-2.539,6.087l2.737,6.655a1.893,1.893,0,0,1-1.031,2.47l-1.947.8a1.893,1.893,0,0,1-2.47-1.031l-2.737-6.655a10.554,10.554,0,0,1,5.747-13.775l12.064-4.962a10.554,10.554,0,0,1,13.776,5.746l2.737,6.655A1.893,1.893,0,0,1,2292.921,1653.809Z" transform="translate(-2255.818 -1638.141)"/><path class="j" d="M2282.452,1769.739h-35.586a3.948,3.948,0,0,0-3.948,3.948V1801a3.949,3.949,0,0,0,3.948,3.949h35.586A3.949,3.949,0,0,0,2286.4,1801v-27.311A3.948,3.948,0,0,0,2282.452,1769.739Zm-12.7,26.4a1.463,1.463,0,0,1-1.422,1.8h-7.338a1.463,1.463,0,0,1-1.423-1.8l1.712-7.128a6.6,6.6,0,1,1,6.759,0Z" transform="translate(-2242.917 -1744.811)"/></g></g></g><g transform="translate(560.138 714.575)"><path class="k" d="M2902.037,1874.363s-.44,6.192-5.5,8.792c-8.621,4.427-27,12.268-25.983,24.169.4,4.668,4.765,9.1,4.9,13.47.1,3.235-1.022,6.279-2.095,9.278-2.9,8.123-1.981,14.358,6.081,18.613a19.58,19.58,0,0,1,10.85,15.362c1.648,10.9,15.417,11.018,23.152,8.276A33.978,33.978,0,0,0,2934,1951.354c1.5-4.73,1.721-11.083-.086-15.8-1.479-3.863-3.083-8.156-3.152-12.354-.079-4.716,2.586-7.963,5.413-11.441,2.31-2.843,2.34-9.752,1.61-13.122-.849-3.919-2.969-7.61-4.9-11.084-3.675-6.616-9.147-13.747-16.941-15.587C2911.559,1870.926,2905.951,1872.223,2902.037,1874.363Z" transform="translate(-2868.229 -1852.102)"/><path class="l" d="M2741.591,1825.49s43.858-40.3-2.477-38.219c0,0-4.618-15.88-5.471-18.6-1.078.352-3.929,3.414-2.848,8.035a13.182,13.182,0,0,1-.27,7.516s-2.677-4.055-5-2.924l4.189,7.105s3.809,4.586,6.689,3.646c1.354-.144,31.321-1.072.865,18.051,0,0-10.3,2.852-10.134,3.9C2727.646,1817.181,2737.546,1822.183,2741.591,1825.49Z" transform="translate(-2662.927 -1768.672)"/><path class="m" d="M3041.408,3144.6l-.859,7.06a2.916,2.916,0,0,1-2.558,2.551,45.15,45.15,0,0,1-9.448.148,2.5,2.5,0,0,1-2.1-3.239c.866-2.725,2.451-6.816,4.736-9.223h7.831A2.412,2.412,0,0,1,3041.408,3144.6Z" transform="translate(-3000.963 -2881.772)"/><path class="n" d="M2683.679,2734.231l4.321,4.918s-4.426,44.834-5.214,62.768a14.054,14.054,0,0,0,2.08,7.987l7.7,12.5L2673,2810.859l-.39-2.387,3.2-4.4s-3.647-36.263-4.194-50.225,2.947-19.72,2.947-19.72Z" transform="translate(-2584.898 -2551.245)"/><path class="m" d="M2678.826,3130.3h-6.242a3.758,3.758,0,0,1-2.983-1.462c-1.946-2.529-5.978-7.462-7.906-7.59-2.6-.173-2.263,9.053-2.263,9.053h-1.455l-1.843-11.465a6.787,6.787,0,0,1,3.561-7.094s.594,4.387,3.81,6.328,13.09,8.89,13.09,8.89a8.918,8.918,0,0,1,2.537.068A1.651,1.651,0,0,1,2678.826,3130.3Z" transform="translate(-2569.874 -2857.333)"/><path class="o" d="M2890.944,2725.273s-25.93,49.187-30.052,60.417a107.835,107.835,0,0,0-5.621,21.486c-.086,1.386-1.811,2.716-6.563,2.716-2.453,0-3.654-.983-4.242-1.935a2.772,2.772,0,0,1-.1-2.684c1.5-3.036,6.26-12.736,8.023-17.136,2.1-5.253,6.632-29.06,9.115-37.338s5.29-17.256,16.1-25.527C2877.6,2725.273,2885.024,2718,2890.944,2725.273Z" transform="translate(-2815.956 -2541.451)"/><path class="p" d="M2816.2,2059.835c6.689-28.343-10.256-44.374-10.256-44.374,10.692-10.263,30.172-14.933,30.172-14.933s18.589,13.59,16.384,24.227c-1.292,6.234-13.066,37.343-13.066,37.343S2828.551,2067.251,2816.2,2059.835Z" transform="translate(-2770.477 -1956.609)"/><path class="q" d="M2731.821,2328.042c-2.722-8.2-1.655-12.158-1.655-12.158-10.121,4.312-23.234-2.263-23.234-2.263s-17.8,8.164-8.684,29.526c7.4,17.344,23.309,52.1,23.309,52.1,16.659,3.375,42.75,3.055,42.75,3.055C2753.769,2360.388,2734.543,2336.242,2731.821,2328.042Z" transform="translate(-2661.206 -2210.394)"/><path class="r" d="M2914.553,1949.031l2.709,13.564c-.52,2.152,1.441,1.8,3.616,1.389,3.562-.672,8.154-2.055,9.688-4.827a2.629,2.629,0,0,0,.278-.921l-5.811-6.075a3.044,3.044,0,0,0-1.781-3.2l-4.509-2A3.043,3.043,0,0,0,2914.553,1949.031Z" transform="translate(-2869.21 -1912.979)"/><path class="s" d="M2906.334,1842.592s6.737,1.869,12.276,10.535,2.849,13.349-1.149,14.462-10.924.169-18.141-4.958S2897.617,1840.471,2906.334,1842.592Z" transform="translate(-2856.6 -1828.442)"/><path class="t" d="M2956.236,1824.164s-6.57-12.879,5.382-14.59l3.073,1.6s3.422-8.056-4.251-10.7-15.728,1.407-17.537,11.518-1.49,16.681,4.217,20.667,7.127-1.557,7.127-1.557-3.343-3.986-2.513-6.458,3.8,1.641,3.8,1.641Z" transform="translate(-2909 -1793.819)"/><path class="u" d="M3032.518,1831.963s-30.714,40.043,13.523,30.5c8.775,5.5,7.957,12.3,7.957,12.3s-75.135,9.51-27.748-41.609c.772-.834.663-2.078.761-3.21.208-2.382,2.166-6.9,2.3-9.283.168-2.972,4.573-9.5,7.376-8.843,1.912.446,1.18,3.745.866,5.684l-3.6,8.2c-.367,2.261.264,1.707,2.549,1.538,0,0,1.408-.476,1.55-.115C3038.507,1828.271,3032.518,1831.963,3032.518,1831.963Z" transform="translate(-3010.57 -1803.611)"/><g transform="translate(9.108 19.223)"><path class="j" d="M3048.448,1900.361a.274.274,0,0,0,.274-.274c0-1.056,2.315-9.021,12.418-13.246a14.314,14.314,0,0,0,8.34-9.835,20.026,20.026,0,0,0,.666-6.606.273.273,0,1,0-.544.053,19.907,19.907,0,0,1-.654,6.427,13.526,13.526,0,0,1-8.019,9.457c-10.376,4.338-12.754,12.646-12.754,13.75A.274.274,0,0,0,3048.448,1900.361Z" transform="translate(-3042.977 -1870.154)"/><path class="j" d="M3114.148,2001.245h.02a.273.273,0,0,0,.254-.292c-.351-5.1,5.778-10.758,5.84-10.815a.274.274,0,1,0-.369-.4c-.261.239-6.386,5.9-6.017,11.258A.273.273,0,0,0,3114.148,2001.245Z" transform="translate(-3105.577 -1967.025)"/><path class="j" d="M3153.794,2195.467a.274.274,0,0,0,.051-.543c-3.788-.715-6.289-3.449-7.433-8.124a24.17,24.17,0,0,1-.584-6.906.273.273,0,1,0-.545-.047,24.756,24.756,0,0,0,.6,7.083c1.183,4.833,3.9,7.783,7.863,8.532A.281.281,0,0,0,3153.794,2195.467Z" transform="translate(-3145.236 -2120.981)"/></g></g></g></svg>