<svg xmlns="http://www.w3.org/2000/svg" width="32" height="32" viewBox="0 0 32 32">
  <g id="Group_3657" data-name="Group 3657" transform="translate(-211.329 -656.329)">
    <g id="Rectangle_2412" data-name="Rectangle 2412" transform="translate(211.329 656.329)" fill="#fcbc22" stroke="#707070" stroke-width="1" opacity="0">
      <rect width="32" height="32" stroke="none"/>
      <rect x="0.5" y="0.5" width="31" height="31" fill="none"/>
    </g>
    <g id="settings" transform="translate(215.329 660.33)">
      <g id="Group_7539" data-name="Group 7539">
        <g id="Group_7538" data-name="Group 7538">
          <path id="Path_13461" data-name="Path 13461" d="M22.435,9.391H20.481a8.83,8.83,0,0,0-.639-1.543l1.38-1.38a1.568,1.568,0,0,0,0-2.215L19.746,2.777a1.6,1.6,0,0,0-2.214,0l-1.38,1.38a8.853,8.853,0,0,0-1.543-.639V1.565A1.567,1.567,0,0,0,13.043,0H10.957A1.567,1.567,0,0,0,9.391,1.565V3.519a8.87,8.87,0,0,0-1.543.639L6.467,2.777a1.568,1.568,0,0,0-2.214,0L2.776,4.254a1.569,1.569,0,0,0,0,2.214l1.38,1.381a8.853,8.853,0,0,0-.639,1.543H1.565A1.567,1.567,0,0,0,0,10.957v2.087a1.567,1.567,0,0,0,1.565,1.565H3.519a8.87,8.87,0,0,0,.639,1.543l-1.38,1.381a1.568,1.568,0,0,0,0,2.214l1.477,1.477a1.569,1.569,0,0,0,2.214,0l1.381-1.38a8.853,8.853,0,0,0,1.543.639v1.952A1.567,1.567,0,0,0,10.957,24h2.087a1.567,1.567,0,0,0,1.565-1.565V20.481a8.853,8.853,0,0,0,1.543-.639l1.38,1.381a1.605,1.605,0,0,0,2.214,0l1.477-1.477a1.567,1.567,0,0,0,0-2.214l-1.38-1.381a8.854,8.854,0,0,0,.639-1.543h1.953A1.567,1.567,0,0,0,24,13.043V10.957A1.567,1.567,0,0,0,22.435,9.391Zm.522,3.652a.522.522,0,0,1-.522.522H20.087a.522.522,0,0,0-.505.391,7.842,7.842,0,0,1-.837,2.02.522.522,0,0,0,.08.634l1.659,1.66a.524.524,0,0,1,0,.739l-1.477,1.477a.537.537,0,0,1-.739,0L16.61,18.826a.522.522,0,0,0-.634-.08,7.815,7.815,0,0,1-2.02.836.521.521,0,0,0-.391.5v2.348a.522.522,0,0,1-.522.522H10.957a.523.523,0,0,1-.522-.522V20.087a.522.522,0,0,0-.391-.505,7.823,7.823,0,0,1-2.02-.836.516.516,0,0,0-.265-.073.521.521,0,0,0-.369.153L5.73,20.485a.523.523,0,0,1-.739,0L3.514,19.009a.522.522,0,0,1,0-.739l1.659-1.659a.521.521,0,0,0,.08-.634,7.833,7.833,0,0,1-.836-2.02.521.521,0,0,0-.5-.391H1.565a.523.523,0,0,1-.522-.522V10.957a.523.523,0,0,1,.522-.522H3.913a.522.522,0,0,0,.505-.391,7.823,7.823,0,0,1,.836-2.02.521.521,0,0,0-.08-.634L3.515,5.73a.523.523,0,0,1,0-.739L4.991,3.515a.523.523,0,0,1,.739,0L7.389,5.174a.52.52,0,0,0,.634.08,7.833,7.833,0,0,1,2.02-.836.522.522,0,0,0,.391-.505V1.565a.523.523,0,0,1,.522-.522h2.087a.522.522,0,0,1,.522.522V3.913a.522.522,0,0,0,.391.505,7.815,7.815,0,0,1,2.02.836.521.521,0,0,0,.634-.08L18.27,3.515a.536.536,0,0,1,.739,0l1.477,1.477a.524.524,0,0,1,0,.739L18.826,7.389a.522.522,0,0,0-.08.634,7.835,7.835,0,0,1,.837,2.02.521.521,0,0,0,.5.391h2.348a.522.522,0,0,1,.522.522Z" fill="#fcbc22"/>
        </g>
      </g>
      <g id="Group_7541" data-name="Group 7541" transform="translate(7.296 7.296)">
        <g id="Group_7540" data-name="Group 7540">
          <path id="Path_13462" data-name="Path 13462" d="M116.7,112a4.7,4.7,0,1,0,4.7,4.7A4.71,4.71,0,0,0,116.7,112Zm0,8.362a3.659,3.659,0,1,1,3.659-3.659A3.663,3.663,0,0,1,116.7,120.362Z" transform="translate(-112 -112)" fill="#fcbc22"/>
        </g>
      </g>
    </g>
  </g>
</svg>
